<?xml version="1.0" encoding="utf-8"?>
<!-- Generator: Adobe Illustrator 23.0.0, SVG Export Plug-In . SVG Version: 6.00 Build 0)  -->
<svg version="1.1" id="Camada_1" xmlns="http://www.w3.org/2000/svg" xmlns:xlink="http://www.w3.org/1999/xlink" x="0px" y="0px"
	 viewBox="0 0 591 109.06" style="enable-background:new 0 0 591 109.06;" xml:space="preserve">
<style type="text/css">
	.st0{fill:#FFFFFF;}
</style>
<g>
	<g>
		<path class="st0" d="M28.62,42.39v32.5h11.16v3.76H0v-3.76h9.66V4.86H0V1.1h36.78c10.91,0,18.68,2.04,23.3,6.13
			c4.63,4.09,6.94,8.87,6.94,14.34c0,5.55-2.56,10.41-7.69,14.57c-5.13,4.16-14.2,6.24-27.23,6.24H28.62z M28.62,4.86v33.77h3.93
			c3.43,0,6.08-0.28,7.95-0.84c1.87-0.56,3.4-2.06,4.6-4.51c1.2-2.45,1.79-6.35,1.79-11.71c0-5.24-0.59-9.07-1.76-11.48
			c-1.18-2.41-2.68-3.88-4.51-4.42c-1.83-0.54-4.44-0.81-7.84-0.81H28.62z"/>
		<path class="st0" d="M98.16,52.04V41.63c0-2.81-0.35-4.8-1.04-5.96c-0.69-1.16-2.47-1.73-5.32-1.73c-2.28,0-4.05,0.34-5.32,1.01
			c-1.27,0.67-1.91,1.36-1.91,2.05c0,0.46,0.45,1.16,1.36,2.08c0.91,0.93,1.36,2.08,1.36,3.47c0,2-0.75,3.73-2.26,5.17
			c-1.5,1.45-3.39,2.17-5.67,2.17c-2.08,0-3.87-0.69-5.38-2.05c-1.5-1.37-2.26-3.04-2.26-5c0-3.39,2.01-6.27,6.04-8.64
			c4.03-2.37,9.61-3.56,16.74-3.56c5.51,0,10.13,0.69,13.85,2.08c3.72,1.39,5.58,4.52,5.58,9.38v24.44c0,4.21,1.18,6.31,3.53,6.31
			c0.65,0,1.56-0.37,2.72-1.1l1.56,2.6c-3.28,3.82-7.07,5.72-11.39,5.72c-4.51,0-8.29-2.33-11.33-7c-5.05,4.66-10.66,7-16.83,7
			c-4.16,0-7.44-1.09-9.83-3.27c-2.39-2.18-3.58-4.9-3.58-8.14C68.78,58.36,78.57,52.81,98.16,52.04z M98.16,62.65v-7.54
			c-5.2,0.19-8.83,1.02-10.87,2.47c-2.04,1.45-3.07,3.88-3.07,7.28c0,2.63,0.64,4.7,1.91,6.21c1.27,1.51,2.91,2.26,4.92,2.26
			c2.27,0,4.03-0.75,5.26-2.26C97.54,69.55,98.16,66.75,98.16,62.65z"/>
		<path class="st0" d="M144.97,31.34v12.78h0.23c0.93-4.55,2.45-7.93,4.57-10.15c2.12-2.22,4.47-3.32,7.05-3.32
			c2.51,0,4.55,0.9,6.13,2.69c1.58,1.79,2.37,4,2.37,6.62c0,2.24-0.6,4.04-1.79,5.41c-1.2,1.37-2.64,2.05-4.34,2.05
			c-1.7,0-3.15-0.64-4.37-1.91c-1.21-1.27-1.82-2.68-1.82-4.22c0-1.93,0.34-3.28,1.01-4.05c0.67-0.77,1.01-1.27,1.01-1.5
			c0-0.42-0.31-0.64-0.93-0.64c-1.93,0-3.77,1.89-5.52,5.67c-1.75,3.78-2.63,9.92-2.63,18.42v15.92h8.62v3.53h-30.42v-3.53h6.01
			V35.68h-6.01v-3.59h7.69c4.09,0,7.09-0.12,9.02-0.38l2.08-0.38H144.97z"/>
		<path class="st0" d="M199.41,52.04V41.63c0-2.81-0.35-4.8-1.04-5.96c-0.69-1.16-2.47-1.73-5.32-1.73c-2.28,0-4.05,0.34-5.32,1.01
			c-1.27,0.67-1.91,1.36-1.91,2.05c0,0.46,0.45,1.16,1.36,2.08c0.91,0.93,1.36,2.08,1.36,3.47c0,2-0.75,3.73-2.26,5.17
			c-1.5,1.45-3.39,2.17-5.67,2.17c-2.08,0-3.87-0.69-5.38-2.05c-1.5-1.37-2.26-3.04-2.26-5c0-3.39,2.01-6.27,6.04-8.64
			c4.03-2.37,9.61-3.56,16.74-3.56c5.51,0,10.13,0.69,13.85,2.08c3.72,1.39,5.58,4.52,5.58,9.38v24.44c0,4.21,1.18,6.31,3.53,6.31
			c0.65,0,1.56-0.37,2.72-1.1l1.56,2.6c-3.28,3.82-7.07,5.72-11.39,5.72c-4.51,0-8.29-2.33-11.33-7c-5.05,4.66-10.66,7-16.83,7
			c-4.16,0-7.44-1.09-9.83-3.27c-2.39-2.18-3.58-4.9-3.58-8.14C170.04,58.36,179.83,52.81,199.41,52.04z M199.41,62.65v-7.54
			c-5.2,0.19-8.83,1.02-10.87,2.47c-2.04,1.45-3.07,3.88-3.07,7.28c0,2.63,0.64,4.7,1.91,6.21c1.27,1.51,2.91,2.26,4.92,2.26
			c2.27,0,4.03-0.75,5.26-2.26C198.79,69.55,199.41,66.75,199.41,62.65z"/>
		<path class="st0" d="M273.11,0v75.23h6.36v3.41h-7.25c-2.36,0-4.56,0.06-6.61,0.17L259,79.34h-1.62v-7h-0.23
			c-2.47,5.17-6.3,7.75-11.51,7.75c-5.05,0-9.47-2.44-13.27-7.32c-3.8-4.88-5.7-10.91-5.7-18.09c0-6.91,1.93-12.64,5.78-17.19
			c3.85-4.55,8.33-6.83,13.41-6.83c4.32,0,8.15,1.97,11.51,5.9V4.63h-9.37V1.1h8.27c1.89,0,5.05-0.18,9.48-0.55
			C270.2,0.18,272.64,0,273.11,0z M257.38,60.63V48.19c0-4.83-0.9-8.41-2.69-10.74s-3.63-3.5-5.52-3.5c-1.46,0-2.6,0.83-3.41,2.49
			c-0.81,1.66-1.21,5.02-1.21,10.07v17.43c0,4.83,0.3,8.07,0.9,9.73c0.6,1.66,1.69,2.49,3.27,2.49c1.66,0,3.52-1.08,5.58-3.24
			C256.35,70.75,257.38,66.66,257.38,60.63z"/>
		<path class="st0" d="M304.88,30.65v44.47h4.51v3.53h-25.85v-3.53h5.55V35.68h-5.55v-3.59h7.35c3.82,0,7.01-0.24,9.6-0.72
			C303.07,30.89,304.54,30.65,304.88,30.65z M288.06,10.93c0-2.35,0.82-4.35,2.46-5.99c1.64-1.64,3.61-2.46,5.93-2.46
			c2.35,0,4.37,0.83,6.04,2.49c1.68,1.66,2.52,3.64,2.52,5.96c0,2.31-0.84,4.31-2.52,5.98c-1.68,1.68-3.69,2.52-6.04,2.52
			c-2.31,0-4.29-0.84-5.93-2.52C288.87,15.24,288.06,13.24,288.06,10.93z"/>
		<path class="st0" d="M357.24,37.82c2.27,2.63,3.41,5.68,3.41,9.16c0,4.98-2.11,9.04-6.33,12.17c-4.22,3.13-8.97,4.69-14.25,4.69
			c-1.43,0-3.01-0.1-4.74-0.29c-1.73-0.19-3.39-0.29-4.97-0.29c-3.32,0-5.89,0.59-7.72,1.76c-1.83,1.18-2.75,2.52-2.75,4.02
			c0,1.96,1.7,2.95,5.09,2.95c2.39,0,5.78-0.21,10.18-0.64c4.39-0.42,9.31-0.64,14.75-0.64c10.48,0,15.73,4.97,15.73,14.92
			c0,7.36-2.69,13.1-8.07,17.23c-5.38,4.12-12.33,6.19-20.85,6.19c-6.86,0-12.37-1.21-16.51-3.64c-4.14-2.43-6.22-5.59-6.22-9.48
			c0-3.01,2.6-6.48,7.81-10.41c-4.82-1.58-7.23-5.3-7.23-11.16c0-6.94,3.84-11.39,11.51-13.36c-5.94-3.51-8.9-8.11-8.9-13.79
			c0-4.29,1.91-8.12,5.72-11.5c3.82-3.38,9.21-5.07,16.19-5.07c6.55,0,12.01,1.77,16.36,5.32c1.66-4.51,4.11-6.77,7.34-6.77
			c3.32,0,4.97,1.89,4.97,5.67c0,3.32-1.19,4.97-3.58,4.97c-1,0-1.91-0.53-2.72-1.59c-0.81-1.06-1.6-1.59-2.37-1.59
			C358.52,36.66,357.9,37.05,357.24,37.82z M324.86,86.1c-1.31,2.89-1.97,5.26-1.97,7.11c0,4.12,1.55,7.23,4.65,9.31
			c3.1,2.08,7.14,3.12,12.11,3.12c6.36,0,11.43-1.55,15.21-4.66c3.78-3.1,5.67-6.56,5.67-10.38c0-3.47-2.22-5.2-6.65-5.2
			l-24.29,1.16C328.76,86.56,327.18,86.41,324.86,86.1z M339.09,60.89c2.78,0,4.48-1,5.12-3.01c0.64-2.01,0.95-5.79,0.95-11.36
			c0-5.14-0.34-8.62-1.01-10.43c-0.67-1.82-2.48-2.72-5.41-2.72c-2.35,0-3.96,0.77-4.83,2.32c-0.87,1.55-1.3,5.64-1.3,12.28
			c0,5.91,0.57,9.54,1.71,10.89C335.45,60.21,337.04,60.89,339.09,60.89z"/>
		<path class="st0" d="M392.08,30.65v9.95h0.23c3.7-6.63,9.62-9.95,17.75-9.95c8.52,0,13.26,3.51,14.22,10.52
			c4.24-7.02,9.89-10.52,16.94-10.52c4.63,0,8.07,0.65,10.32,1.94c2.26,1.29,3.68,2.91,4.28,4.86c0.6,1.95,0.9,4.45,0.9,7.5v30.16
			h6.59v3.53h-29.09v-3.53h6.71V43.67c0-3.74-0.39-6.04-1.16-6.89c-0.77-0.85-1.83-1.27-3.18-1.27c-2.31,0-4.63,1.02-6.94,3.07
			c-2.31,2.05-3.77,4.28-4.37,6.69c-0.6,2.41-0.9,5.76-0.9,10.05v19.8h6.77v3.53h-29.26v-3.53h6.71v-31.1c0-3.71-0.4-6.03-1.21-6.98
			s-1.95-1.42-3.41-1.42c-2.7,0-5.36,1.22-7.98,3.65c-2.62,2.43-3.93,7.07-3.93,13.9v21.95h6.77v3.53h-29.14v-3.53h6.59V35.68h-6.59
			v-3.59h8.15c2.89,0,5.67-0.24,8.33-0.72l3.64-0.72H392.08z"/>
		<path class="st0" d="M496.02,52.04V41.63c0-2.81-0.35-4.8-1.04-5.96c-0.69-1.16-2.47-1.73-5.32-1.73c-2.27,0-4.05,0.34-5.32,1.01
			c-1.27,0.67-1.91,1.36-1.91,2.05c0,0.46,0.45,1.16,1.36,2.08c0.91,0.93,1.36,2.08,1.36,3.47c0,2-0.75,3.73-2.25,5.17
			c-1.5,1.45-3.39,2.17-5.67,2.17c-2.08,0-3.87-0.69-5.38-2.05c-1.5-1.37-2.25-3.04-2.25-5c0-3.39,2.01-6.27,6.04-8.64
			c4.03-2.37,9.61-3.56,16.74-3.56c5.51,0,10.13,0.69,13.85,2.08c3.72,1.39,5.58,4.52,5.58,9.38v24.44c0,4.21,1.18,6.31,3.53,6.31
			c0.65,0,1.56-0.37,2.72-1.1l1.56,2.6c-3.28,3.82-7.07,5.72-11.39,5.72c-4.51,0-8.29-2.33-11.33-7c-5.05,4.66-10.66,7-16.83,7
			c-4.16,0-7.44-1.09-9.83-3.27c-2.39-2.18-3.59-4.9-3.59-8.14C466.65,58.36,476.44,52.81,496.02,52.04z M496.02,62.65v-7.54
			c-5.2,0.19-8.83,1.02-10.87,2.47c-2.04,1.45-3.06,3.88-3.06,7.28c0,2.63,0.64,4.7,1.91,6.21c1.27,1.51,2.91,2.26,4.91,2.26
			c2.27,0,4.03-0.75,5.26-2.26C495.41,69.55,496.02,66.75,496.02,62.65z"/>
	</g>
	<g>
		<path class="st0" d="M529.9,54.51c1.37,1.03,2.3,2.01,2.79,2.93c0.63,1.22,0.94,2.67,0.94,4.36v14.62c0,1.55,0.45,2.82,1.36,3.81
			c0.9,0.99,2.03,1.55,3.37,1.69c0.85,0.08,1.41,0.24,1.68,0.49c0.36,0.33,0.53,0.73,0.53,1.22c0,0.52-0.18,0.93-0.53,1.24
			c-0.36,0.31-0.88,0.47-1.56,0.47c-2.16,0-3.97-0.68-5.42-2.04c-1.94-1.87-2.92-4.15-2.92-6.84V61.8c0-1.49-0.45-2.75-1.36-3.77
			c-0.9-1.02-2.05-1.58-3.45-1.69c-0.77-0.08-1.3-0.27-1.6-0.57c-0.3-0.3-0.45-0.72-0.45-1.26c0-0.52,0.15-0.92,0.45-1.22
			c0.3-0.3,0.83-0.49,1.6-0.57c1.42-0.11,2.58-0.67,3.47-1.69c0.89-1.02,1.33-2.27,1.33-3.77V32.59c0-2.55,0.82-4.68,2.46-6.37
			c1.64-1.7,3.61-2.55,5.91-2.55c0.66,0,1.16,0.16,1.52,0.49c0.36,0.33,0.53,0.73,0.53,1.22c0,0.49-0.18,0.9-0.53,1.22
			c-0.25,0.27-0.81,0.45-1.68,0.53c-1.37,0.14-2.5,0.71-3.39,1.71c-0.89,1-1.33,2.25-1.33,3.75v14.66c0,1.71-0.27,3.09-0.82,4.13
			C532.26,52.44,531.29,53.48,529.9,54.51z"/>
		<path class="st0" d="M584.39,54.51c-1.4-1.03-2.33-2.01-2.79-2.93c-0.63-1.19-0.94-2.63-0.94-4.32V32.59
			c0-1.52-0.45-2.78-1.36-3.79c-0.9-1-2.03-1.56-3.37-1.67c-0.88-0.08-1.44-0.24-1.68-0.49c-0.36-0.35-0.53-0.77-0.53-1.26
			c0-0.49,0.17-0.9,0.51-1.22c0.34-0.33,0.86-0.49,1.54-0.49c2.19,0,4,0.69,5.42,2.08c1.94,1.85,2.92,4.13,2.92,6.84v14.66
			c0,1.49,0.46,2.75,1.38,3.77c0.92,1.02,2.07,1.58,3.47,1.69c0.74,0.08,1.27,0.27,1.58,0.57c0.31,0.3,0.47,0.71,0.47,1.22
			c0,0.54-0.16,0.96-0.47,1.26c-0.32,0.3-0.84,0.49-1.58,0.57c-1.42,0.11-2.59,0.67-3.49,1.69c-0.9,1.02-1.36,2.28-1.36,3.77v14.66
			c0,2.55-0.82,4.68-2.46,6.38c-1.64,1.7-3.6,2.55-5.87,2.55c-0.68,0-1.2-0.16-1.54-0.49c-0.34-0.33-0.51-0.75-0.51-1.26
			c0-0.49,0.16-0.9,0.49-1.22c0.27-0.24,0.85-0.41,1.72-0.49c1.37-0.14,2.5-0.71,3.39-1.73c0.89-1.02,1.33-2.27,1.33-3.77V61.8
			c0-1.71,0.27-3.1,0.82-4.15C582.02,56.59,582.99,55.54,584.39,54.51z"/>
	</g>
</g>
</svg>
