<?xml version="1.0" encoding="utf-8"?>
<!-- Generator: Adobe Illustrator 22.1.0, SVG Export Plug-In . SVG Version: 6.00 Build 0)  -->
<svg version="1.1" id="Layer_1" xmlns="http://www.w3.org/2000/svg" xmlns:xlink="http://www.w3.org/1999/xlink" x="0px" y="0px"
	 viewBox="0 0 500 500" style="enable-background:new 0 0 500 500;" xml:space="preserve">
<style type="text/css">
	.st0{fill:#FFFFFF;}
</style>
<g>
	<path class="st0" d="M49,250.4c10.1,7.6,17,14.8,20.6,21.6c4.7,9,6.9,19.7,6.9,32.2v107.9c0,11.4,3.3,20.8,10,28.1
		c6.6,7.3,15,11.4,24.9,12.5c6.3,0.6,10.4,1.8,12.4,3.6c2.7,2.4,3.9,5.4,3.9,9c0,3.8-1.3,6.9-3.9,9.2c-2.7,2.3-6.5,3.5-11.5,3.5
		c-15.9,0-29.3-5-40-15.1c-14.3-13.8-21.6-30.6-21.6-50.5V304.2c0-11-3.3-20.3-10-27.8c-6.6-7.5-15.1-11.7-25.5-12.5
		c-5.7-0.6-9.6-2-11.8-4.2c-2.2-2.2-3.3-5.3-3.3-9.3c0-3.8,1.1-6.8,3.3-9c2.2-2.2,6.1-3.6,11.8-4.2c10.5-0.8,19-4.9,25.6-12.5
		c6.6-7.5,9.8-16.8,9.8-27.8V88.6c0-18.8,6.1-34.5,18.2-47C81,29,95.5,22.7,112.5,22.7c4.9,0,8.6,1.2,11.2,3.6
		c2.7,2.4,3.9,5.4,3.9,9s-1.3,6.6-3.9,9c-1.8,2-6,3.3-12.4,3.9c-10.1,1-18.5,5.2-25,12.6s-9.8,16.6-9.8,27.7v108.2
		c0,12.6-2,22.8-6.1,30.5C66.4,235.1,59.3,242.8,49,250.4z"/>
	<path class="st0" d="M451.3,250.4c-10.3-7.6-17.2-14.8-20.6-21.6c-4.7-8.8-6.9-19.4-6.9-31.9V88.6c0-11.2-3.3-20.5-10-28
		c-6.6-7.4-15-11.5-24.9-12.3c-6.5-0.6-10.6-1.8-12.4-3.6c-2.7-2.6-3.9-5.7-3.9-9.3s1.3-6.6,3.8-9c2.5-2.4,6.3-3.6,11.4-3.6
		c16.2,0,29.5,5.1,40,15.4c14.3,13.7,21.6,30.5,21.6,50.5v108.2c0,11,3.4,20.3,10.2,27.8c6.8,7.5,15.3,11.7,25.6,12.5
		c5.5,0.6,9.4,2,11.7,4.2c2.3,2.2,3.5,5.2,3.5,9c0,4-1.2,7.1-3.5,9.3c-2.4,2.2-6.2,3.6-11.7,4.2c-10.5,0.8-19.1,4.9-25.8,12.5
		c-6.6,7.5-10,16.8-10,27.8v108.2c0,18.8-6.1,34.5-18.2,47.1s-26.6,18.8-43.3,18.8c-5,0-8.9-1.2-11.4-3.6c-2.5-2.4-3.8-5.5-3.8-9.3
		c0-3.6,1.2-6.6,3.6-9c2-1.8,6.3-3,12.7-3.6c10.1-1,18.5-5.2,25-12.8c6.6-7.5,9.8-16.8,9.8-27.8V304.2c0-12.6,2-22.9,6.1-30.6
		C433.8,265.8,440.9,258,451.3,250.4z"/>
</g>
</svg>
